<svg width="600" height="200" viewBox="0 0 600 200" fill="none" xmlns="http://www.w3.org/2000/svg">
<path d="M63.252 56.126C66.378 56.002 74.003 55.752 77.88 54.876C77.754 56.502 77.504 61.502 77.504 71.001V75.251C81.004 72.375 83.881 70.875 87.381 70.875C89.1524 70.8064 90.9116 71.1961 92.4882 72.0065C94.0649 72.8169 95.4057 74.0206 96.381 75.501C98.1132 78.5887 98.9771 82.0878 98.881 85.627C98.881 97.25 93.381 103.876 82.253 103.876C79.2165 103.809 76.2306 103.084 73.502 101.75C72.002 102.25 70.002 103.25 68.002 103.876L67.376 103.5C67.502 100.124 67.502 93.75 67.502 85.125V69.125C67.502 65.125 67.376 62.375 67.252 60.001C67.126 58.375 66.752 58.125 63.001 58.125L63.252 56.126ZM82.252 101.5C86.503 101.5 88.503 96.374 88.503 86.875C88.64 83.698 88.041 80.5323 86.753 77.625C86.3821 76.8795 85.8121 76.2513 85.1061 75.8101C84.4 75.3688 83.5855 75.1317 82.753 75.125C81.816 75.1717 80.9047 75.4466 80.0983 75.9259C79.2919 76.4052 78.6148 77.0743 78.126 77.875C77.502 78.751 77.252 79.501 77.252 89.375C77.252 97.501 77.628 97.751 78.128 98.751C78.4709 99.5629 79.0448 100.256 79.7783 100.745C80.5117 101.234 81.3726 101.496 82.254 101.5H82.252ZM120.752 103.126C118.126 103.126 115.501 102.874 111.375 102.874C107 102.874 104.875 103.126 102.75 103.126V101C106.25 100.874 106.75 100.25 106.876 98.874C107 97.374 107.126 95 107.126 91.124V83.124C107.126 79.874 107.126 77.25 107 76.124C106.874 74.998 106.374 74.624 103.124 74.75V72.625C107.501 72.251 112.751 72.125 117.002 71.251C116.876 72.877 116.752 75.877 116.752 82.751V91.377C116.752 95.377 116.878 97.127 117.002 98.877C117.126 100.627 117.628 100.877 120.752 101.251V103.126ZM111.382 56.752C114.634 56.752 116.509 58.628 116.509 62.002C116.509 64.878 114.383 66.878 111.132 66.878C110.484 66.9088 109.836 66.8038 109.23 66.5696C108.625 66.3355 108.075 65.9774 107.616 65.5183C107.157 65.0592 106.799 64.5093 106.565 63.9037C106.331 63.2982 106.226 62.6504 106.257 62.002C106.215 61.3122 106.319 60.6213 106.56 59.9737C106.801 59.3261 107.175 58.7361 107.658 58.2417C108.141 57.7473 108.722 57.3594 109.363 57.1028C110.005 56.8462 110.693 56.7267 111.384 56.752H111.382ZM124.009 56.126C128.576 56.0475 133.132 55.6297 137.637 54.876C137.468 60.0406 137.384 65.2073 137.385 70.376V86.001C139.761 85.375 144.885 79.125 146.885 75.501C147.261 74.751 147.261 74.375 146.261 74.375L143.511 74.125V72.001C148.138 72.127 152.888 71.875 157.639 71.625V73.751C154.139 74.127 152.762 74.377 151.386 75.501C149.234 77.4331 147.229 79.5222 145.386 81.751C146.886 84.877 153.139 96.376 155.513 99.5C155.858 100.001 156.328 100.403 156.876 100.666C157.425 100.929 158.032 101.045 158.639 101L160.387 101.126L160.263 103.25C155.625 103.152 150.986 103.403 146.385 104C144.885 100.5 140.385 92 139.01 89.375C138.26 88.001 137.884 87.501 137.384 87.625C137.384 92.751 137.26 95.251 137.51 98.874C137.636 100.5 138.01 101 141.386 101.124V103.25C139.01 103.25 136.509 103 132.386 103C127.509 103 125.386 103.25 123.509 103.25V101.124C126.759 101 127.259 100.376 127.385 99.124C127.509 97.624 127.633 94.374 127.633 87.875V71.751C127.633 66.625 127.633 62.751 127.509 59.502C127.509 58.752 127.009 58.3766 126.009 58.376H123.883L124.009 56.126ZM93.882 133.998C91.756 140.748 87.631 143.998 80.754 143.998C74.877 143.998 71.127 142.372 68.503 138.872C66.503 136.248 65.503 132.372 65.503 127.998C65.503 118.372 71.38 110.998 82.131 110.998C88.631 110.998 93.382 113.998 93.382 118.874C93.382 122.248 90.632 123.622 88.382 123.622C87.5118 123.608 86.6564 123.395 85.882 122.998C85.5044 122.776 85.2123 122.434 85.0527 122.026C84.8931 121.618 84.8752 121.168 85.002 120.749C85.1889 119.884 85.3145 119.006 85.378 118.123C85.378 114.999 84.252 113.499 81.878 113.499C78.002 113.499 76.002 119.125 76.002 126.875C76.002 129.999 76.378 133.499 77.502 135.623C78.752 138.499 80.752 140.123 83.753 140.123C87.503 140.123 89.88 137.999 91.63 133.123L93.882 133.998ZM101.002 124.875C101.06 121.953 100.934 119.03 100.626 116.123C100.618 115.939 100.572 115.759 100.49 115.595C100.409 115.43 100.294 115.284 100.152 115.167C100.011 115.049 99.8469 114.962 99.6701 114.912C99.4933 114.862 99.308 114.849 99.126 114.875H96.876V112.749C100.626 112.623 105.753 112.373 109.376 111.249L109.752 111.499C110.002 112.999 110.252 116.625 110.378 118.875H110.626C112.254 114.499 114.502 110.999 119.126 110.999C119.763 111.009 120.391 111.148 120.972 111.408C121.553 111.668 122.076 112.042 122.509 112.51C122.941 112.977 123.274 113.527 123.488 114.127C123.702 114.727 123.792 115.363 123.753 115.999C123.753 120.125 120.627 121.375 119.376 121.375C118.881 121.45 118.375 121.371 117.927 121.146C117.479 120.922 117.112 120.565 116.876 120.123C116.252 118.749 115.876 117.999 114.628 117.999C113.252 117.999 112.502 119.249 111.628 121.249C111.162 122.702 110.95 124.224 111.002 125.749C111.002 132.875 111.002 136.874 111.128 138.624C111.254 140.374 111.876 140.872 116.877 140.998L116.753 143.124C113.253 142.998 110.126 142.872 106.502 142.872C102.752 142.872 100.002 142.998 96.875 143.124L97.249 140.998C100.249 140.872 100.999 140.498 100.999 139.248C101.125 137.498 101.249 134.122 101.249 130.248V124.873H101.002V124.875ZM143.383 119.125C143.383 115.373 142.131 113.373 139.631 113.373C136.757 113.373 135.383 114.999 135.383 117.999C135.398 118.797 135.481 119.592 135.631 120.375C135.711 120.726 135.682 121.094 135.548 121.428C135.415 121.763 135.183 122.049 134.883 122.249C133.841 122.937 132.631 123.326 131.383 123.375C129.007 123.375 127.006 122.247 127.006 119.499C127.006 115.499 132.883 110.999 141.134 110.999C147.883 110.999 150.883 113.749 152.009 115.499C152.657 116.506 153.004 117.677 153.009 118.875V137.248C153.009 139.374 153.635 139.874 154.385 139.874C155.385 139.874 156.509 138.248 157.009 135.498L159.135 136.498C158.009 141.874 154.758 144.124 150.258 144.124C146.382 144.124 144.258 142.498 143.631 139.248C140.631 142.248 137.506 144.124 134.256 144.124C129.005 144.124 125.505 140.624 125.505 134.872C125.505 131.372 127.005 129.372 129.631 128.248C133.879 126.372 140.256 124.498 143.381 122.248V119.123L143.383 119.125ZM135.511 132.998C135.511 135.748 136.637 138.748 139.387 138.748C141.387 138.748 142.261 137.498 142.887 136.248C143.175 135.275 143.301 134.262 143.261 133.248V124.748C141.885 125.624 139.761 126.624 138.134 127.624C136.635 128.625 135.511 129.873 135.511 132.998ZM160.264 112.125L164.264 112.249V110.249C164.39 104.999 165.64 101.123 168.39 98.374C169.572 97.1557 170.992 96.1939 172.562 95.5488C174.132 94.9036 175.818 94.5888 177.515 94.624C182.642 94.624 185.392 97.124 185.392 100.374C185.392 102.75 183.392 104.374 180.639 104.374C180.305 104.394 179.971 104.343 179.659 104.225C179.347 104.106 179.063 103.923 178.826 103.686C178.59 103.45 178.407 103.166 178.288 102.854C178.17 102.542 178.119 102.208 178.139 101.874C178.139 99.25 177.765 97.126 175.891 97.126C174.639 97.126 173.891 98.25 173.639 100.376C173.391 102.376 173.765 106.126 174.015 111.999H180.142L179.766 114.499L174.015 114.875C173.889 117.249 173.889 121.375 173.889 126.248C173.889 130.874 173.889 134.998 174.015 138.248C174.141 139.874 174.391 140.498 175.765 140.624C176.885 140.764 178.012 140.847 179.141 140.872L178.887 142.998C176.513 142.998 172.762 142.748 169.512 142.748C166.136 142.748 162.135 142.998 159.885 142.998L160.011 140.872C163.261 140.748 163.761 140.372 163.887 138.998C164.135 136.872 164.135 133.622 164.135 129.248V114.749L159.887 114.499L160.261 112.123L160.264 112.125Z" fill="#FEC63E"/>
<path d="M203.127 112.12L202.875 114.493L195.248 114.993C195.248 117.619 195.122 121.493 195.122 126.744C195.122 132.244 195.122 135.995 195.374 138.244C195.498 139.87 196.122 140.62 197.374 140.62C199.998 140.62 201.623 137.744 202.249 135.12H203.249L204.127 137.993C202.627 141.619 198.874 144.12 193.374 144.12C190.374 144.12 187.749 143.12 186.499 141.62C185.571 140.312 185.129 138.722 185.248 137.123C185.248 131.993 185.498 120.493 185.498 114.993L181.498 114.617L181.748 112.243H185.498C185.624 109.867 185.624 107.116 185.624 104.616C188.909 103.872 192.068 102.651 195 100.993L195.75 101.119C195.531 104.824 195.406 108.532 195.374 112.244H203.127V112.118V112.12Z" fill="#FEC63E"/>
<path d="M235 47.919V151.081H55V47.919H235ZM245 38H45V161H245V38Z" fill="#FEC63E"/>
<path d="M340.52 103.3H329.18V114.94H321.26V103.3H309.92V95.98H321.26V84.34H329.18V95.98H340.52V103.3Z" fill="black"/>
<g clip-path="url(#clip0)">
<path fill-rule="evenodd" clip-rule="evenodd" d="M480.995 35.5063C497.817 35.5063 513.135 41.9528 524.617 52.5075C518.989 52.3565 513.373 55.7017 513.14 63.3621C512.667 78.8483 531.658 82.1471 521.425 113.297L512.96 139.063L489.907 71.1531C489.55 70.1019 489.965 69.5037 491.257 69.5037H497.775C498.114 69.5037 498.39 69.2145 498.39 68.8603V64.9999C498.39 64.6458 498.113 64.342 497.775 64.3566C485.432 64.8963 473.162 64.9 460.966 64.3566C460.626 64.3421 460.35 64.647 460.35 65.0012V68.8616C460.35 69.2155 460.627 69.5051 460.966 69.5051H467.519C468.977 69.5051 469.385 69.9908 469.729 70.9305L479.201 96.8357L464.952 139.862L441.529 70.8724C441.239 70.007 441.59 69.5047 442.424 69.5047H449.891C450.23 69.5047 450.506 69.2155 450.506 68.8612V65.0009C450.506 64.6468 450.229 64.3398 449.891 64.3576C442.056 64.7737 434.192 64.8574 426.866 64.9326C438.362 47.2238 458.309 35.505 480.991 35.505L480.991 35.5048L480.995 35.5063ZM537.713 69.2868C542.668 78.4168 545.482 88.8773 545.482 99.9921C545.482 124.386 531.928 145.617 511.946 156.577L532.058 99.6117C535.173 90.7956 538.066 78.8811 537.711 69.2868H537.711H537.713ZM502.585 160.77C495.834 163.171 488.568 164.481 480.995 164.481C474.47 164.481 468.174 163.508 462.239 161.708L482.106 104.775L502.585 160.773V160.773L502.585 160.77ZM453.4 158.29C431.591 147.947 416.506 125.729 416.506 99.995C416.506 90.4553 418.581 81.3993 422.301 73.2517L453.401 158.291L453.401 158.291L453.4 158.29ZM480.993 29.4547C519.942 29.4547 551.53 61.0427 551.53 99.9921C551.53 138.941 519.942 170.53 480.993 170.53C442.044 170.53 410.455 138.941 410.455 99.9921C410.455 61.0427 442.044 29.4547 480.993 29.4547V29.4547ZM480.993 24.9961C522.405 24.9961 555.991 58.582 555.991 99.9938C555.991 141.406 522.405 174.992 480.993 174.992C439.581 174.992 405.995 141.406 405.995 99.9938C405.995 58.582 439.581 24.9961 480.993 24.9961V24.9961Z" fill="#464342"/>
</g>
<defs>
<clipPath id="clip0">
<rect width="150" height="150" fill="white" transform="translate(406 25)"/>
</clipPath>
</defs>
</svg>
